<?xml version="1.0" encoding="UTF-8"?>
<svg version="1.1" xmlns="http://www.w3.org/2000/svg" width="2500" height="2083">
<path d="M0 0 C825 0 1650 0 2500 0 C2500 687.39 2500 1374.78 2500 2083 C1675 2083 850 2083 0 2083 C0 1395.61 0 708.22 0 0 Z " fill="#FEFEFE" transform="translate(0,0)"/>
<path d="M0 0 C1.79824219 -0.01160156 1.79824219 -0.01160156 3.6328125 -0.0234375 C15.12191368 0.00148463 25.34299165 1.30422126 35.875 6 C36.69548828 6.35779541 37.51597656 6.71559082 38.36132812 7.08422852 C48.91348762 11.76837318 57.5463454 17.64943609 66.25 25.25 C66.88808594 25.80300781 67.52617188 26.35601562 68.18359375 26.92578125 C85.05584645 42.6290557 94.15242462 65.9060001 95.171875 88.49609375 C95.21054688 89.85927734 95.21054688 89.85927734 95.25 91.25 C96.45140625 91.61609375 97.6528125 91.9821875 98.890625 92.359375 C105.48404913 94.56403513 111.71898713 97.5406274 118 100.5 C118.65006012 100.80512512 119.30012024 101.11025024 119.96987915 101.42462158 C167.08072463 123.57549605 211.67114395 150.55327543 252.25 183.25 C253.64412109 184.36955078 253.64412109 184.36955078 255.06640625 185.51171875 C265.7831887 194.20058021 276.23658571 203.18818435 286.3515625 212.5703125 C288.20866933 214.28726033 290.07750769 215.99165675 291.9609375 217.6796875 C298.69454257 223.73427357 305.14980589 230.04405797 311.5625 236.4375 C312.83480469 237.70291626 312.83480469 237.70291626 314.1328125 238.99389648 C318.48232452 243.35411105 322.68283076 247.78104782 326.69702148 252.4519043 C328.94184887 255.05104809 331.28416721 257.54944378 333.625 260.0625 C337.84274087 264.63297905 341.8595264 269.3193887 345.7578125 274.16796875 C347.62869084 276.48164118 349.51731879 278.77186579 351.4296875 281.05078125 C373.07255977 306.90590137 392.3885327 335.05119078 409.25 364.25 C409.74016602 365.09498047 410.23033203 365.93996094 410.73535156 366.81054688 C450.24527289 435.23074901 479.74266738 512.18765703 489.91455078 590.78857422 C490.48805903 594.99680577 491.18977755 599.18380542 491.875 603.375 C492.92868943 609.99198239 493.94497471 616.54815856 494.25 623.25 C494.28786621 623.95656738 494.32573242 624.66313477 494.36474609 625.39111328 C495.26947214 644.1078719 495.26947214 644.1078719 489.25 652.25 C488.34507812 653.49910156 488.34507812 653.49910156 487.421875 654.7734375 C485.06956283 657.4557503 482.77483665 659.12194208 479.75 661 C478.8115625 661.59296875 477.873125 662.1859375 476.90625 662.796875 C472.04031429 665.45882806 467.54732351 665.39654152 462.08491516 665.39044189 C461.25480287 665.39341302 460.42469058 665.39638414 459.56942338 665.3994453 C456.78365814 665.40812723 453.9979359 665.40964013 451.2121582 665.41113281 C449.21634326 665.41576138 447.22052921 665.4207861 445.22471619 665.42617798 C439.79890229 665.4393012 434.37310078 665.44574693 428.94727349 665.45018864 C425.55678341 665.45311981 422.16629671 665.45722473 418.77580833 665.46169281 C408.16596184 665.47536825 397.55612308 665.48503438 386.94626838 665.4888947 C374.70237007 665.49337409 362.45858346 665.51091633 350.21471912 665.5398953 C340.74875641 665.56152098 331.28282511 665.57159948 321.81683797 665.57293582 C316.16427421 665.57398331 310.51181546 665.57987929 304.85927773 665.59775543 C299.53969275 665.61425109 294.22029154 665.61638428 288.90069008 665.60761642 C286.95165515 665.60684682 285.00261027 665.61117858 283.05360031 665.62107468 C280.38551731 665.63382386 277.71808226 665.62790131 275.05000305 665.61749268 C274.28519365 665.62554908 273.52038425 665.63360548 272.73239881 665.64190602 C263.67948677 665.55974086 255.76090568 662.59641964 249.25 656.25 C244.24559096 649.95842588 241.35761644 643.93761629 240.13671875 635.97265625 C239.94335938 634.74764404 239.75 633.52263184 239.55078125 632.26049805 C239.34839844 630.95765869 239.14601563 629.65481934 238.9375 628.3125 C235.94628856 609.63685559 232.07820715 591.26096581 226.25 573.25 C225.97849121 572.40953125 225.70698242 571.5690625 225.42724609 570.703125 C208.59717474 519.25570644 181.94255017 471.97339923 146.25 431.25 C145.48429687 430.37214844 144.71859375 429.49429687 143.9296875 428.58984375 C137.92863278 421.88448518 131.61165974 415.48448773 125.27429199 409.09906006 C124.27511139 408.09183768 123.27741559 407.08313969 122.28137207 406.07281494 C115.61999472 399.32615079 108.67002423 393.15432543 101.25 387.25 C100.22244805 386.38661403 99.1990349 385.51822264 98.18359375 384.640625 C79.29253291 368.43984043 58.18093818 355.16441281 36.31982422 343.37304688 C34.40267453 342.33283827 32.49879933 341.27222492 30.59765625 340.203125 C-21.79184746 311.05364275 -84.04885754 296.20348104 -143.81567383 295.5769043 C-156.42343829 295.40402217 -166.91386408 294.43032197 -176.5703125 285.58203125 C-183.31098618 278.1808393 -185.87803446 270.49393392 -185.87025452 260.57450867 C-185.87110894 259.91686817 -185.87196337 259.25922766 -185.87284368 258.58165866 C-185.87448603 256.38603542 -185.86899757 254.1904892 -185.86352539 251.99487305 C-185.86324322 250.41780092 -185.86340183 248.84072867 -185.8639679 247.26365662 C-185.86425472 242.98721806 -185.85837652 238.71080756 -185.85139394 234.43437552 C-185.84514131 229.963398 -185.84455509 225.49241982 -185.84336853 221.0214386 C-185.84026085 212.55718272 -185.83205504 204.09293977 -185.82201904 195.62868959 C-185.81084043 185.99151572 -185.80534304 176.35434123 -185.80032361 166.71716249 C-185.78987197 146.89476778 -185.77228341 127.07238471 -185.75 107.25 C-191.39222624 107.76108777 -197.03370352 108.27965103 -202.67466736 108.80448914 C-204.58470578 108.98121735 -206.49491878 109.1560711 -208.40531921 109.32884216 C-227.04339199 111.01680353 -245.37395301 113.73528606 -263.75 117.25 C-264.45171326 117.38341797 -265.15342651 117.51683594 -265.87640381 117.65429688 C-319.84567387 127.95993973 -371.80390502 146.00027494 -420.67285156 171.18261719 C-422.14355115 171.93836455 -423.61716122 172.68846043 -425.09277344 173.43457031 C-462.59122677 192.39677292 -497.76652908 216.34126593 -529.68359375 243.65234375 C-532.40770986 245.97652742 -535.19669993 248.20923584 -538 250.4375 C-550.357322 260.53996583 -561.58167929 271.99147663 -572.875 283.25 C-573.61163879 283.98262054 -573.61163879 283.98262054 -574.36315918 284.7300415 C-580.05109289 290.39437284 -585.54717031 296.13785869 -590.75 302.25 C-591.77178041 303.41811824 -592.7951944 304.58480976 -593.8203125 305.75 C-652.24442717 372.55831144 -696.27367367 452.56103928 -720.75 544.25 C-720.96962402 545.08740723 -721.18924805 545.92481445 -721.41552734 546.78759766 C-726.07637544 564.75997302 -729.2051018 583.019095 -732.75 601.25 C-691.17 601.25 -649.59 601.25 -606.75 601.25 C-606.09 597.62 -605.43 593.99 -604.75 590.25 C-592.26120291 531.52434803 -566.63616669 474.99426908 -531.75 426.25 C-531.2019873 425.48413574 -530.65397461 424.71827148 -530.08935547 423.92919922 C-523.4683377 414.72112455 -516.70253009 405.72622392 -509.26171875 397.1640625 C-506.85245769 394.36887005 -504.5475562 391.51219451 -502.25 388.625 C-498.2356394 383.68258829 -493.84145179 379.24101915 -489.296875 374.796875 C-487.20069301 372.70069301 -485.27194142 370.58507338 -483.375 368.3125 C-480.29599651 364.70925371 -476.91933401 361.51768829 -473.4375 358.3125 C-472.880625 357.79437744 -472.32375 357.27625488 -471.75 356.74243164 C-469.12250693 354.32183079 -466.5042025 352.06371463 -463.65234375 349.90234375 C-462.73582031 349.19207031 -461.81929687 348.48179687 -460.875 347.75 C-459.64136719 346.86828125 -459.64136719 346.86828125 -458.3828125 345.96875 C-456.0308527 342.05256814 -456.8238331 339.02050843 -457.36035156 334.58105469 C-460.09065256 311.24006048 -457.31458752 290.59680399 -445.75 270.25 C-445.23953125 269.28835938 -444.7290625 268.32671875 -444.203125 267.3359375 C-434.18097991 249.82301386 -416.90817909 237.2775374 -398.5625 229.75 C-397.76755127 229.42330322 -396.97260254 229.09660645 -396.15356445 228.76000977 C-375.33158181 220.75745975 -348.91773648 221.74482764 -328.5625 230.5 C-325.93221513 231.69988418 -323.33585063 232.957417 -320.75 234.25 C-319.67621094 234.78625 -318.60242187 235.3225 -317.49609375 235.875 C-297.49378292 246.72371096 -282.77108306 266.24478873 -274.75 287.25 C-269.65237323 304.89256766 -267.95097737 325.59777511 -273.75 343.25 C-274.29527344 344.98443359 -274.29527344 344.98443359 -274.8515625 346.75390625 C-282.87751183 370.75408375 -299.06747621 390.0921345 -321.75 401.5 C-344.50002896 412.6216437 -370.44662968 415.51212903 -394.75 407.25 C-401.32606612 404.87457066 -407.56935589 402.17388838 -413.375 398.25 C-414.48875 397.59 -415.6025 396.93 -416.75 396.25 C-419.86073931 397.31101846 -421.99377758 399.19349236 -424.3671875 401.41796875 C-425.39102539 402.3757019 -425.39102539 402.3757019 -426.43554688 403.3527832 C-427.15806641 404.04073975 -427.88058594 404.72869629 -428.625 405.4375 C-429.37587891 406.1493042 -430.12675781 406.8611084 -430.90039062 407.59448242 C-441.61031694 417.83930099 -451.53397934 428.64227848 -460.75 440.25 C-461.66762459 441.36593906 -462.58699795 442.48044167 -463.5078125 443.59375 C-509.12456869 499.09275369 -535.44339921 566.31883056 -547.31518555 636.59570312 C-547.47929932 637.56185547 -547.64341309 638.52800781 -547.8125 639.5234375 C-547.94398438 640.33474121 -548.07546875 641.14604492 -548.2109375 641.98193359 C-550.13162262 650.06307706 -555.82338309 657.21468734 -562.8359375 661.53515625 C-568.93278129 664.69690238 -574.01069437 665.39814796 -580.87712097 665.39044189 C-581.70314971 665.39341302 -582.52917844 665.39638414 -583.38023835 665.3994453 C-586.15218411 665.40812694 -588.92408665 665.4096401 -591.69604492 665.41113281 C-593.68200777 665.41576141 -595.66796974 665.42078612 -597.65393066 665.42617798 C-603.05288591 665.43930101 -608.45182871 665.44574689 -613.85079741 665.45018864 C-617.22453653 665.45311985 -620.59827225 665.45722477 -623.97200966 665.46169281 C-634.52953043 665.47536821 -645.08704343 665.48503435 -655.64457244 665.4888947 C-667.82791045 665.49337406 -680.01113619 665.51091617 -692.19444007 665.5398953 C-701.61369404 665.56152132 -711.03291645 665.5715995 -720.45219499 665.57293582 C-726.07681329 665.57398329 -731.70132606 665.57987877 -737.3259182 665.59775543 C-742.61923862 665.61425168 -747.91237437 665.616384 -753.20571136 665.60761642 C-755.14507098 665.60684686 -757.08444058 665.61117817 -759.0237751 665.62107468 C-761.67872196 665.63382485 -764.33301775 665.62790079 -766.98796082 665.61749268 C-767.74887927 665.62554908 -768.50979772 665.63360548 -769.29377431 665.64190602 C-778.97349337 665.55362837 -786.92611943 662.1123611 -793.75 655.25 C-802.74565036 643.275021 -802.52253536 631.83580199 -800.54296875 617.62109375 C-800.02155418 613.97446886 -799.48041775 610.3309746 -798.9375 606.6875 C-798.67315715 604.86663374 -798.4094812 603.04567054 -798.14648438 601.22460938 C-795.71864564 584.51940645 -793.07811173 567.92087415 -789.38037109 551.44506836 C-788.87460765 549.18574732 -788.38027593 546.92412442 -787.88671875 544.66210938 C-785.89743264 535.66209252 -783.55344839 526.82963283 -780.88378906 518.00805664 C-779.98193979 515.01878751 -779.11845089 512.02855986 -778.30078125 509.015625 C-769.53781776 476.89753455 -757.16566277 446.07036151 -743.02587891 415.97363281 C-741.83107412 413.42306983 -740.65324094 410.86543843 -739.48046875 408.3046875 C-713.2567276 351.41988455 -675.81543892 299.45288235 -633.75 253.25 C-632.96012695 252.37529053 -632.17025391 251.50058105 -631.35644531 250.59936523 C-624.97136676 243.56747558 -618.40771033 236.75078584 -611.6784668 230.0480957 C-610.04943428 228.42447771 -608.42589272 226.79550397 -606.80273438 225.16601562 C-601.28942925 219.64920387 -595.68311473 214.31691622 -589.75 209.25 C-587.97429779 207.63032183 -586.20291693 206.00588282 -584.4375 204.375 C-580.00368689 200.33597847 -575.46945416 196.47493122 -570.80078125 192.7109375 C-568.57711326 190.91719764 -566.36801522 189.11127617 -564.16796875 187.2890625 C-553.97849011 178.8773447 -543.47733891 170.96166364 -532.75 163.25 C-531.5112915 162.35764648 -531.5112915 162.35764648 -530.24755859 161.44726562 C-519.34363176 153.62097479 -508.24920045 146.29639892 -496.71777344 139.43017578 C-493.93466049 137.76099861 -491.1882427 136.03436593 -488.4375 134.3125 C-486.21253867 132.95067022 -483.98475483 131.59552361 -481.75 130.25 C-481.08419922 129.84797363 -480.41839844 129.44594727 -479.73242188 129.03173828 C-420.91681045 93.80281642 -356.47204417 70.94836951 -289.80493164 55.94482422 C-287.63018795 55.45019299 -285.45771411 54.94553617 -283.28686523 54.43408203 C-282.14161377 54.16450684 -280.9963623 53.89493164 -279.81640625 53.6171875 C-278.77943604 53.37081543 -277.74246582 53.12444336 -276.67407227 52.87060547 C-272.71197911 52.02969031 -268.7781691 51.64621335 -264.75 51.25 C-264.09 50.92 -263.43 50.59 -262.75 50.25 C-260.25149851 49.84668307 -257.76285777 49.48886169 -255.25390625 49.1640625 C-254.48696945 49.0624733 -253.72003265 48.96088409 -252.92985535 48.85621643 C-223.84047112 45.03824271 -195.04965747 42.02329725 -165.6875 41.8125 C-164.76022095 41.80028412 -163.83294189 41.78806824 -162.87756348 41.77548218 C-150.72393982 41.63970489 -139.76993431 41.63775622 -130.34765625 50.4140625 C-124.07135434 57.62643878 -120.49472962 65.5795244 -120.50949097 75.15963745 C-120.50692769 76.16575583 -120.50692769 76.16575583 -120.50431263 77.19219983 C-120.50103413 79.42625832 -120.51199404 81.66001243 -120.52294922 83.89404297 C-120.52351369 85.50081882 -120.52319607 87.10759518 -120.52206421 88.71437073 C-120.52149109 93.06722778 -120.5332388 97.41997429 -120.54721212 101.77280569 C-120.55972627 106.32518546 -120.56089052 110.87756784 -120.56326294 115.42996216 C-120.56947569 124.04649159 -120.58588375 132.66297018 -120.60596192 141.27947724 C-120.62832728 151.09078895 -120.63931595 160.90210311 -120.64935279 170.71343398 C-120.67025015 190.89231768 -120.70542216 211.07115563 -120.75 231.25 C-119.81741364 231.3129425 -118.88482727 231.37588501 -117.92398071 231.44073486 C-116.06596329 231.56916779 -116.06596329 231.56916779 -114.17041016 231.70019531 C-112.94907379 231.78376282 -111.72773743 231.86733032 -110.46939087 231.95343018 C-104.65657512 232.41692159 -98.89767124 233.18590018 -93.125 234 C-91.26307007 234.26115601 -91.26307007 234.26115601 -89.36352539 234.52758789 C-62.2452051 238.4153289 -36.17890015 243.8742166 -10.16992188 252.45947266 C-8.13596986 253.1239134 -6.09240296 253.75881935 -4.046875 254.38671875 C53.55024215 272.40256121 107.20453464 305.49129056 152.25 345.25 C153.18714844 346.075 154.12429688 346.9 155.08984375 347.75 C159.37864573 351.56800116 163.52208949 355.47238012 167.5390625 359.57421875 C169.37390068 361.37135478 171.29201275 363.02583649 173.25 364.6875 C176.68623197 367.64702926 179.61541449 370.83673652 182.54296875 374.29296875 C184.16260807 376.14980925 185.85123291 377.85397492 187.625 379.5625 C191.32046564 383.19182755 194.52283412 387.16198518 197.74609375 391.2109375 C199.80712054 393.71246455 201.91945221 396.11840903 204.08984375 398.5234375 C208.09755857 403.01129419 211.78102714 407.67698499 215.375 412.5 C216.0131665 413.35408447 216.65133301 414.20816895 217.30883789 415.08813477 C230.99928394 433.58969363 243.19956823 453.07325318 254.25 473.25 C254.67152344 474.01248047 255.09304688 474.77496094 255.52734375 475.56054688 C271.66805175 504.8964034 283.94921884 536.2590708 292.53173828 568.59033203 C293.4575414 572.01850987 294.4771768 575.41209533 295.5 578.8125 C297.50545173 586.18969742 298.84112797 593.73601583 300.25 601.25 C341.83 601.25 383.41 601.25 426.25 601.25 C425.26 596.96 424.27 592.67 423.25 588.25 C422.74557905 585.526921 422.26392333 582.79941342 421.81640625 580.06640625 C420.27726477 571.02524464 418.30309422 562.10950841 416.1875 553.1875 C415.99668854 552.3781601 415.80587708 551.56882019 415.60928345 550.73495483 C395.27796977 465.01207039 353.08058794 383.2368173 295.8828125 316.35546875 C293.36661783 313.40579651 290.93107031 310.39529582 288.5 307.375 C285.51159671 303.70064649 282.426515 300.29307847 279.01293945 297.01391602 C277.33761959 295.33766813 275.81390475 293.60658401 274.28515625 291.796875 C269.73014629 286.55705032 264.82372452 281.67368538 259.9074707 276.77709961 C258.31541034 275.19040054 256.7287701 273.59842258 255.14257812 272.00585938 C249.68386063 266.54319933 244.14221359 261.24733616 238.25 256.25 C237.08171089 255.22841497 235.91502441 254.20499406 234.75 253.1796875 C192.10770471 215.88884305 144.84113994 185.80450027 93.875 161.1875 C92.47628662 160.50772095 92.47628662 160.50772095 91.04931641 159.81420898 C85.55706459 157.19433031 80.07556463 155.01264788 74.25 153.25 C73.40179687 154.15621094 72.55359375 155.06242188 71.6796875 155.99609375 C53.6238715 174.9076233 30.91650471 186.92637763 4.41748047 187.72045898 C-17.69845656 187.93087166 -36.82577581 182.56786564 -54.75 169.25 C-55.74902344 168.51007813 -56.74804688 167.77015625 -57.77734375 167.0078125 C-75.07541096 153.4276053 -85.16209497 135.24423428 -90.75 114.25 C-91.11931641 112.9815625 -91.11931641 112.9815625 -91.49609375 111.6875 C-96.90187357 90.21350567 -91.45945397 65.33458901 -80.76171875 46.4453125 C-66.72053905 24.14301154 -47.31183185 9.10805245 -21.75 2.25 C-20.5846875 1.8890625 -19.419375 1.528125 -18.21875 1.15625 C-12.23868507 -0.31668643 -6.11968707 -0.0389789 0 0 Z " fill="#703AE6" transform="translate(1416.75,159.75)"/>
<path d="M0 0 C1.24817828 -0.00807831 1.24817828 -0.00807831 2.52157229 -0.01631981 C5.29038853 -0.03054719 8.05872315 -0.02350861 10.82756042 -0.01637268 C12.82072329 -0.02207905 14.81388289 -0.02904434 16.80703735 -0.03717041 C22.20800366 -0.05508932 27.60880738 -0.05393554 33.00979447 -0.04822803 C37.52501232 -0.04513374 42.04019905 -0.05123145 46.55541247 -0.05726677 C57.21191008 -0.07130682 67.86832752 -0.06975558 78.52482605 -0.05836487 C89.50275388 -0.04688956 100.48043723 -0.06095075 111.45833284 -0.08776134 C120.89724659 -0.10994665 130.33608377 -0.11654917 139.77502173 -0.11068493 C145.40636689 -0.10732029 151.03755543 -0.1096975 156.66887856 -0.12693596 C161.96725181 -0.1424476 167.26526421 -0.13840264 172.56362343 -0.11963081 C174.50214064 -0.11595633 176.44068482 -0.11901992 178.37917709 -0.1295166 C202.32654723 -0.24923278 202.32654723 -0.24923278 211.80485535 8.63768005 C212.58731628 9.3440863 213.36977722 10.05049255 214.1759491 10.77830505 C220.06165778 17.78659989 221.48527544 25.56388573 223.17985535 34.38768005 C225.87631964 47.63786133 229.32197906 60.4917712 233.36735535 73.38768005 C233.63628601 74.26408142 233.90521667 75.14048279 234.18229675 76.04344177 C240.38786817 96.17833865 248.52696801 115.77157067 258.33854675 134.41990662 C259.46490202 136.57425485 260.56293025 138.74188247 261.6603241 140.91111755 C283.23758552 183.2008116 315.38513407 226.06826281 352.99235535 255.50486755 C355.22362297 257.27373432 357.28709974 259.13306642 359.36735535 261.07518005 C371.24788431 271.7421066 384.88977367 280.85572749 398.36735535 289.38768005 C399.07843445 289.83788513 399.78951355 290.28809021 400.5221405 290.75193787 C428.43735018 308.26571595 458.483187 323.11973016 490.09391785 332.69139099 C492.56979761 333.44968234 495.02981799 334.25123577 497.49235535 335.05174255 C526.9664251 344.38317147 558.58034978 349.59184659 589.4337616 350.8290863 C590.32201126 350.86639359 591.21026093 350.90370087 592.12542725 350.94213867 C596.55463931 351.12570077 600.98177701 351.28320695 605.41349792 351.39085388 C616.93011314 351.75253456 626.86194857 353.07124062 635.80485535 361.07518005 C642.73140073 368.69437998 645.49562739 376.86700087 645.48760986 387.02520752 C645.48846429 387.67876447 645.48931871 388.33232142 645.49019903 389.00568312 C645.49184127 391.18748701 645.4863531 393.36921337 645.48088074 395.55101013 C645.48059857 397.11823017 645.48075718 398.68545033 645.48132324 400.25267029 C645.48161006 404.50225027 645.47573201 408.75180201 645.46874928 413.00137544 C645.4624965 417.44432574 645.46191042 421.88727669 645.46072388 426.33023071 C645.45761624 434.74136268 645.44941049 443.15248163 645.43937439 451.56360787 C645.42819563 461.14032339 645.42269835 470.71703953 645.41767895 480.29375994 C645.40722742 499.99174057 645.38963895 519.68970949 645.36735535 539.38768005 C649.70077141 539.07447963 654.03395779 538.75820291 658.36711121 538.44139099 C659.58782066 538.35320099 660.80853012 538.26501099 662.06623077 538.17414856 C670.39650685 537.56309103 678.65694919 536.80321027 686.92985535 535.63768005 C688.77281189 535.38172058 688.77281189 535.38172058 690.65299988 535.12059021 C694.5611957 534.56368091 698.46467908 533.98199624 702.36735535 533.38768005 C703.02415283 533.28797913 703.68095032 533.1882782 704.35765076 533.08555603 C737.11749587 528.07965138 769.44851703 520.50743835 800.67546082 509.34568787 C803.05613624 508.49843861 805.4434339 507.68073535 807.8400116 506.87986755 C853.61390708 491.45795577 898.77202031 469.35138885 938.46208191 441.71287537 C940.65979651 440.18427531 942.86934271 438.67343272 945.07829285 437.16111755 C956.49686916 429.29967167 967.53998464 421.04346731 978.36735535 412.38768005 C979.38184753 411.57685974 980.39633972 410.76603943 981.4415741 409.9306488 C984.10428807 407.77326741 986.74156295 405.58983443 989.36735535 403.38768005 C989.88684753 402.95310486 990.40633972 402.51852966 990.9415741 402.07078552 C1005.43697992 389.91103221 1018.97782604 376.86772969 1032.36735535 363.51268005 C1032.95793732 362.92477692 1033.54851929 362.33687378 1034.15699768 361.7311554 C1040.44855337 355.4612491 1046.63878929 349.18412138 1052.36735535 342.38768005 C1053.33989605 341.26925825 1054.31382496 340.15204187 1055.28923035 339.03611755 C1061.77544441 331.54724195 1068.01556103 323.90627605 1074.0690155 316.06394958 C1075.29886432 314.47610793 1076.54172745 312.89837133 1077.7853241 311.3212738 C1097.3776054 286.29557028 1114.27566695 259.32518902 1129.36735535 231.38768005 C1129.88249695 230.44247498 1130.39763855 229.4972699 1130.9283905 228.52342224 C1147.56566554 197.89801773 1160.92251903 165.62889738 1171.36735535 132.38768005 C1171.58166199 131.70608826 1171.79596863 131.02449646 1172.01676941 130.32225037 C1178.19747102 110.43090731 1183.68552902 90.12629205 1187.6759491 69.68455505 C1188.36735535 66.38768005 1188.36735535 66.38768005 1189.36735535 64.38768005 C1126.50235535 64.88268005 1126.50235535 64.88268005 1062.36735535 65.38768005 C1060.05735535 73.96768005 1057.74735535 82.54768005 1055.36735535 91.38768005 C1053.83117871 96.1557818 1052.2917117 100.82766103 1050.55485535 105.51268005 C1050.13236511 106.66969421 1049.70987488 107.82670837 1049.27458191 109.01878357 C1038.01419794 139.51739581 1024.34588318 168.65807737 1007.36735535 196.38768005 C1006.84399597 197.25102966 1006.3206366 198.11437927 1005.78141785 199.00389099 C999.32273035 209.63039904 992.39758445 219.73941815 984.77702332 229.56492615 C983.43114321 231.30519994 982.10164324 233.0566069 980.7775116 234.8134613 C972.19879749 246.15928562 962.95662365 256.88669863 953.36735535 267.38768005 C952.08924988 268.80500427 952.08924988 268.80500427 950.7853241 270.2509613 C942.42101663 279.49866286 933.84551062 288.60938203 924.33610535 296.6962738 C922.08954028 298.62635848 919.9215163 300.63186145 917.74235535 302.63768005 C912.14805825 307.67850788 906.26930455 312.29857717 900.30632019 316.89012146 C898.30487841 318.43593409 896.31436477 319.99511447 894.3243866 321.5556488 C885.56467766 328.38502674 876.58764847 334.74774111 867.2931366 340.8290863 C866.62669128 341.27486023 865.96024597 341.72063416 865.27360535 342.17991638 C863.36735535 343.38768005 863.36735535 343.38768005 859.8868866 345.12205505 C857.03673639 347.68498083 856.96581045 348.13974017 856.70329285 351.7743988 C856.69321521 353.54134512 856.70762881 355.30854627 856.74235535 357.07518005 C856.37824138 382.81182103 846.40106607 406.95308101 828.36735535 425.38768005 C807.63043959 445.13565199 783.37990985 452.12618966 755.30485535 451.6884613 C734.26738816 451.00061086 715.0767863 442.24641092 699.36735535 428.38768005 C698.48821472 427.6193988 697.6090741 426.85111755 696.70329285 426.05955505 C679.92966093 410.37646886 669.14707931 386.98947045 668.1290741 364.0322113 C667.49538781 336.62741076 675.27239601 312.83302326 694.16593933 292.61424255 C710.56262346 275.61318896 732.76217322 264.96307896 756.44548035 264.05174255 C768.72548405 263.87303148 779.70936552 264.34307134 791.36735535 268.38768005 C792.00850281 268.60730408 792.64965027 268.8269281 793.31022644 269.0532074 C804.77864897 273.05935846 814.94706679 278.44271554 823.51579285 287.20018005 C825.33647258 288.64320602 825.33647258 288.64320602 827.72795105 288.11717224 C830.41718199 287.37390871 832.15719259 286.47032418 834.4493866 284.90330505 C835.20864441 284.38671326 835.96790222 283.87012146 836.75016785 283.33787537 C837.95286316 282.49627869 837.95286316 282.49627869 839.17985535 281.63768005 C840.01645691 281.05856873 840.85305847 280.4794574 841.7150116 279.88279724 C849.32821822 274.54490123 856.5367117 268.78272955 863.65690613 262.81004333 C866.00628406 260.85636423 868.41018649 258.97291011 870.80485535 257.07518005 C884.97474087 245.47385384 898.48689972 232.31978063 910.36735535 218.38768005 C911.21555847 217.42861755 912.0637616 216.46955505 912.93766785 215.48143005 C925.61117878 201.07990969 937.14047153 185.61930294 947.36735535 169.38768005 C948.04048767 168.32323669 948.04048767 168.32323669 948.72721863 167.23728943 C975.6955998 124.25787551 996.29453731 75.2493347 1004.24235535 24.88768005 C1005.81131796 16.92113713 1011.05643109 11.26168518 1016.9493866 5.9931488 C1017.74731628 5.46334412 1018.54524597 4.93353943 1019.36735535 4.38768005 C1020.11814204 3.88595402 1020.11814204 3.88595402 1020.88409615 3.3740921 C1029.19692897 -1.21250327 1038.74258015 -0.17189272 1047.94108582 -0.12989807 C1049.93439748 -0.13532333 1051.92770514 -0.14244825 1053.92100525 -0.15113831 C1059.31783354 -0.16932886 1064.71435495 -0.16232105 1070.11118841 -0.14962196 C1075.77016346 -0.13946939 1081.42911287 -0.14889417 1087.08808899 -0.15516663 C1096.59219561 -0.16243764 1106.09617779 -0.15287085 1115.6002655 -0.13380432 C1126.57083908 -0.11204924 1137.54111511 -0.11907935 1148.51168144 -0.14110994 C1157.94637745 -0.15929442 1167.38098418 -0.16180698 1176.81569207 -0.15135527 C1182.44365888 -0.14513549 1188.07148611 -0.14424269 1193.69944382 -0.15750122 C1198.99374225 -0.16910299 1204.28765933 -0.16095502 1209.58191681 -0.13792419 C1211.51881656 -0.13265964 1213.45574871 -0.134112 1215.39263535 -0.14297485 C1228.25537929 -0.1963808 1239.71547786 -0.01228245 1249.57829285 9.3837738 C1257.83889341 18.63636789 1258.98618719 26.55489293 1258.5509491 38.55223083 C1257.92343671 48.24362555 1256.06791683 57.83901346 1254.36735535 67.38768005 C1254.18011902 68.45051208 1253.99288269 69.51334412 1253.79997253 70.60838318 C1248.84167838 98.40565924 1242.22229174 125.57417605 1233.36735535 152.38768005 C1232.94531725 153.6765264 1232.52344437 154.96542685 1232.10173035 156.25437927 C1213.49283108 212.94585938 1187.85316581 266.92527083 1154.36735535 316.38768005 C1153.86752136 317.12872986 1153.36768738 317.86977966 1152.85270691 318.63328552 C1146.92112444 327.3982769 1140.80688581 335.98584083 1134.36735535 344.38768005 C1133.60036316 345.39959412 1132.83337097 346.41150818 1132.0431366 347.4540863 C1113.17579869 372.274077 1092.57835023 395.37704168 1070.50602722 417.37937927 C1068.46903113 419.41094205 1066.43753584 421.44789841 1064.40641785 423.4853363 C1063.08382218 424.80727212 1061.76091686 426.12889822 1060.43766785 427.45018005 C1059.84478973 428.0450824 1059.25191162 428.63998474 1058.6410675 429.25291443 C1054.37768077 433.49292316 1049.9240425 437.46652898 1045.36735535 441.38768005 C1044.1413708 442.45716303 1042.91600575 443.52735706 1041.6915741 444.59861755 C1034.35296757 450.99165563 1026.979122 457.31976337 1019.36735535 463.38768005 C1018.73523132 463.89379822 1018.1031073 464.39991638 1017.451828 464.92137146 C1007.5207642 472.84910396 997.36051835 480.27778802 986.8165741 487.3681488 C983.51687015 489.59014099 980.28402341 491.88117768 977.08000183 494.23826599 C968.67676267 500.40984155 959.78373802 505.68916101 950.795578 510.95896912 C948.59645765 512.25288148 946.40767535 513.56205448 944.2228241 514.87986755 C915.47065969 532.1516354 885.47768098 546.63050419 854.4025116 559.15867615 C851.97656513 560.14099713 849.5595686 561.13893533 847.14860535 562.1572113 C829.48338412 569.51096739 811.08529563 575.03517231 792.67985535 580.20018005 C792.02929169 580.38295502 791.37872803 580.56572998 790.70845032 580.75404358 C763.33491749 588.41370755 735.59188527 595.18497535 707.40153503 598.97898865 C705.45307644 599.24143793 703.50567253 599.51191224 701.55973816 599.79246521 C674.26030941 603.72773658 646.19378966 605.54885902 618.61735535 605.76268005 C617.68665222 605.77645691 616.7559491 605.79023376 615.79704285 605.8044281 C604.80373033 605.727054 596.45451055 602.39201682 588.6446991 594.6884613 C581.88828807 587.30123058 580.23945886 579.35097378 580.24710083 569.55397034 C580.24624641 568.89139186 580.24539198 568.22881338 580.24451166 567.54615676 C580.24287273 565.33982007 580.24835208 563.13356046 580.25382996 560.92723083 C580.2541122 559.34015912 580.25395337 557.75308727 580.25338745 556.16601562 C580.25310092 551.86690977 580.25897444 547.56783191 580.26596141 543.26873255 C580.27221886 538.77240294 580.27280064 534.27607267 580.27398682 529.77973938 C580.27709308 521.26947608 580.28529697 512.75922564 580.29533631 504.24896801 C580.30651933 494.5585676 580.31201341 484.86816657 580.31703174 475.17776132 C580.32748017 455.24772705 580.34506597 435.31770436 580.36735535 415.38768005 C579.35665891 415.39345818 579.35665891 415.39345818 578.32554436 415.39935303 C577.43481287 415.40234909 576.54408138 415.40534515 575.62635803 415.40843201 C574.74631041 415.41228409 573.86626278 415.41613617 572.95954704 415.42010498 C569.31260491 415.37448651 565.74237083 415.01704261 562.12516785 414.57518005 C561.3714238 414.48616425 560.61767975 414.39714844 559.84109497 414.30543518 C557.39009712 414.00989608 554.94112529 413.70112499 552.49235535 413.38768005 C551.21979385 413.22595306 551.21979385 413.22595306 549.92152405 413.06095886 C523.24407617 409.61446934 496.97164403 403.64464163 471.36735535 395.38768005 C470.55089539 395.12696716 469.73443542 394.86625427 468.89323425 394.59764099 C417.61397968 378.01309357 369.64478525 351.68683855 327.36735535 318.38768005 C326.53204285 317.73541443 325.69673035 317.0831488 324.83610535 316.41111755 C305.03871082 300.7917446 285.36242538 283.58346114 269.02360535 264.3212738 C267.10749958 262.0843107 265.11222679 259.92964428 263.11735535 257.76268005 C257.53082411 251.56172491 252.44238674 245.0074348 247.36735535 238.38768005 C246.88363464 237.76087341 246.39991394 237.13406677 245.90153503 236.48826599 C237.9020983 226.10219863 230.43495999 215.42876665 223.36735535 204.38768005 C222.55162048 203.11440857 222.55162048 203.11440857 221.71940613 201.81541443 C201.94702629 170.70458762 186.51521791 137.65423095 174.56486511 102.81004333 C172.87713785 97.98668742 171.1136987 93.19012427 169.36735535 88.38768005 C167.38735535 80.79768005 165.40735535 73.20768005 163.36735535 65.38768005 C121.45735535 65.05768005 79.54735535 64.72768005 36.36735535 64.38768005 C56.0797356 145.7012486 83.72532122 221.56547578 132.36735535 290.38768005 C132.90215515 291.14919373 133.43695496 291.9107074 133.98796082 292.69529724 C141.24454308 303.00579112 148.86263624 312.92930322 156.91423035 322.63035583 C159.00351456 325.15701372 161.05706803 327.71235912 163.11735535 330.26268005 C166.70257591 334.64242751 170.43369551 338.86524647 174.2462616 343.0478363 C176.17521869 345.1757282 178.05771887 347.33488864 179.92985535 349.51268005 C182.86247423 352.88553041 185.96514581 356.03382257 189.17985535 359.13768005 C191.08736472 361.09968969 192.8604036 363.10868842 194.64079285 365.18455505 C198.19464126 369.27365578 202.00834138 372.97228901 205.99235535 376.63768005 C207.03395813 377.60375183 207.03395813 377.60375183 208.09660339 378.58934021 C209.51035988 379.89974578 210.92562563 381.20852507 212.342453 382.51560974 C214.20600477 384.23850761 216.06006562 385.97084342 217.9103241 387.70799255 C223.55424737 392.99262098 229.2805965 398.08747832 235.3165741 402.92674255 C237.63289168 404.79521897 239.92187586 406.68383184 242.1993866 408.59861755 C283.15866951 443.15836639 283.15866951 443.15836639 330.36735535 467.38768005 C330.85462097 466.91459412 331.3418866 466.44150818 331.84391785 465.9540863 C351.97337994 447.17878802 376.06107655 439.5645772 403.27311707 440.31199646 C420.16526702 440.92246119 437.8760987 447.0992258 451.36735535 457.38768005 C452.27356628 458.06443787 453.17977722 458.74119568 454.1134491 459.4384613 C472.50046898 473.79614812 486.30269277 494.46745945 490.05827332 517.7587738 C491.70155396 531.73574536 491.70795189 546.90726135 487.36735535 560.38768005 C487.16867859 561.01787048 486.97000183 561.64806091 486.76530457 562.29734802 C478.51346087 587.91824099 461.40348575 607.13124545 437.7006073 619.45140076 C431.13633201 622.69216222 424.52891827 624.81880191 417.36735535 626.38768005 C416.61220642 626.56065613 415.8570575 626.7336322 415.07902527 626.91184998 C391.82440138 631.97468147 366.63166161 627.0762286 346.6056366 614.26023865 C343.03254993 611.8250843 339.68849026 609.15191735 336.36735535 606.38768005 C335.66610535 605.84885193 334.96485535 605.3100238 334.24235535 604.75486755 C318.19580422 591.87880436 306.72222615 570.20173671 303.67204285 550.0009613 C303.01001655 542.1500084 303.22735987 534.25853689 303.36735535 526.38768005 C302.49893005 526.1259198 301.63050476 525.86415955 300.73576355 525.59446716 C297.35650227 524.38379176 294.55405493 522.91200179 291.4728241 521.0790863 C290.36100769 520.42013367 289.24919128 519.76118103 288.10368347 519.08226013 C286.92046014 518.37203407 285.73752327 517.66133059 284.55485535 516.95018005 C283.33158052 516.21925006 282.10827298 515.48837483 280.88493347 514.7575531 C271.57187657 509.17765741 262.38185992 503.43886488 253.36735535 497.38768005 C252.62646667 496.89235779 251.885578 496.39703552 251.12223816 495.88670349 C233.47430155 484.05514983 216.4706262 471.569349 200.19352722 457.90965271 C197.69488169 455.82722541 195.15468616 453.79767803 192.61735535 451.76268005 C187.95140537 447.95606028 183.52251791 443.92868504 179.13200378 439.8110199 C176.35737914 437.20947644 173.54755485 434.67051779 170.66325378 432.19065857 C166.40476334 428.47095205 162.38579222 424.55080215 158.3946991 420.5478363 C157.30458275 419.45915504 157.30458275 419.45915504 156.19244385 418.34848022 C154.66773239 416.8244445 153.14426384 415.29916436 151.62199402 413.77268982 C149.31101643 411.45635542 146.99474764 409.14540928 144.67790222 406.83494568 C143.18734714 405.34372971 141.69710234 403.85220353 140.2071991 402.3603363 C139.52471603 401.67987747 138.84223297 400.99941864 138.1390686 400.29833984 C133.68347617 395.82128392 129.48142202 391.17895603 125.36735535 386.38768005 C124.34517128 385.21991502 123.32192203 384.05308045 122.29704285 382.88768005 C105.43921471 363.60870818 89.91702062 343.45960908 75.36735535 322.38768005 C74.8883075 321.69513123 74.40925964 321.0025824 73.91569519 320.28904724 C60.90817818 301.3874303 49.26805784 281.56871034 38.36735535 261.38768005 C37.78341003 260.3203363 37.78341003 260.3203363 37.18766785 259.23143005 C15.38563097 219.33227759 -2.54047193 175.96633131 -13.97590637 131.91014099 C-14.5427348 129.73301412 -15.12854583 127.56315929 -15.7303009 125.39549255 C-16.7369443 121.73571209 -17.69487375 118.06551361 -18.63264465 114.38768005 C-18.95482971 113.13906189 -18.95482971 113.13906189 -19.28352356 111.86521912 C-23.97981708 93.5242455 -27.42552329 75.03293065 -30.63264465 56.38768005 C-30.90600647 54.83307068 -30.90600647 54.83307068 -31.18489075 53.24705505 C-35.97864278 25.92505343 -35.97864278 25.92505343 -27.38264465 12.63768005 C-20.49783445 3.7105867 -11.0153921 -0.0867727 0 0 Z " fill="#703AE6" transform="translate(650.6326446533203,897.6123199462891)"/>
<path d="M0 0 C0.83541321 0.00082581 1.67082642 0.00165161 2.53155518 0.00250244 C20.53774482 0.0431504 38.43110615 1.12776789 56 5.3125 C57.6130665 5.67283771 59.2263559 6.03217873 60.83984375 6.390625 C107.96519678 17.11285027 150.8421966 39.47408412 186.5390625 72.07421875 C188.16422249 73.55234046 189.80473906 75.01377261 191.4609375 76.45703125 C227.89932134 108.35498556 255.98157225 156.34366165 267.44677734 203.09375 C268.03346778 205.44672558 268.66394983 207.78512346 269.30078125 210.125 C271.60497498 218.73002712 273.47605105 227.30504292 274.75 236.125 C274.86553223 236.92333252 274.98106445 237.72166504 275.10009766 238.54418945 C284.41187105 308.36835975 267.59762646 381.8354215 225.375 438.6875 C223.92548546 440.5693259 222.46755198 442.44470657 221 444.3125 C219.99839844 445.60414063 219.99839844 445.60414063 218.9765625 446.921875 C214.8988501 452.11169079 210.60806029 457.05844679 206.16015625 461.93359375 C204.19730067 464.09521952 202.2803374 466.28776262 200.375 468.5 C194.72090182 474.97296757 188.56874082 480.77932574 182 486.3125 C181.46262207 486.76898926 180.92524414 487.22547852 180.37158203 487.69580078 C170.08733098 496.39443563 159.39318827 504.13181311 148 511.3125 C146.98631348 511.95566162 146.98631348 511.95566162 145.95214844 512.61181641 C84.78040023 551.05791515 10.14734059 562.50987026 -60.22412109 547.70141602 C-103.02666795 537.93369775 -142.18295299 518.06990037 -176 490.3125 C-176.57991699 489.83699707 -177.15983398 489.36149414 -177.75732422 488.87158203 C-189.36251609 479.28969534 -200.43529724 468.96258868 -210 457.3125 C-210.43135254 456.78962402 -210.86270508 456.26674805 -211.30712891 455.72802734 C-218.30312951 447.21836784 -225.02417431 438.57988822 -231 429.3125 C-231.66418945 428.28406982 -231.66418945 428.28406982 -232.34179688 427.23486328 C-244.75183761 407.78991263 -255.3630224 386.91358849 -262.21289062 364.84521484 C-262.75626448 363.096778 -263.3131174 361.35249317 -263.88085938 359.61181641 C-272.83466044 332.13472007 -276.22948086 304.1943074 -276.25 275.375 C-276.25067474 274.5153363 -276.25134949 273.65567261 -276.25204468 272.7699585 C-276.23502078 259.05951253 -275.48308988 245.82041118 -273 232.3125 C-272.75056641 230.85094482 -272.75056641 230.85094482 -272.49609375 229.35986328 C-268.37261824 205.31771026 -261.35847633 182.39795929 -251 160.3125 C-250.61086426 159.47525391 -250.22172852 158.63800781 -249.82080078 157.77539062 C-238.53295385 133.71068131 -223.56952743 112.19753473 -206 92.3125 C-205.53126465 91.78060059 -205.0625293 91.24870117 -204.57958984 90.70068359 C-192.90083822 77.53590469 -180.11311117 65.81958539 -166 55.3125 C-165.36255859 54.83458008 -164.72511719 54.35666016 -164.06835938 53.86425781 C-116.67830775 18.58913107 -58.97253126 -0.24947703 0 0 Z " fill="#703AE6" transform="translate(1263,565.6875)"/>
<path d="M0 0 C101.64 0 203.28 0 308 0 C308 22.44 308 44.88 308 68 C228.8 68 149.6 68 68 68 C68 81.86 68 95.72 68 110 C141.92 110 215.84 110 292 110 C292 132.44 292 154.88 292 178 C218.08 178 144.16 178 68 178 C68 191.86 68 205.72 68 220 C146.87 220 225.74 220 307 220 C307 242.44 307 264.88 307 288 C205.69 288 104.38 288 0 288 C0 192.96 0 97.92 0 0 Z " fill="#703BE6" transform="translate(1786,1636)"/>
<path d="M0 0 C101.31 0 202.62 0 307 0 C307 22.44 307 44.88 307 68 C227.8 68 148.6 68 67 68 C67 81.86 67 95.72 67 110 C141.25 110 215.5 110 292 110 C292 132.44 292 154.88 292 178 C217.75 178 143.5 178 67 178 C67 191.86 67 205.72 67 220 C146.2 220 225.4 220 307 220 C307 242.44 307 264.88 307 288 C205.69 288 104.38 288 0 288 C0 192.96 0 97.92 0 0 Z " fill="#703BE6" transform="translate(1115,1636)"/>
<path d="M0 0 C99.99 0 199.98 0 303 0 C303 12.54 303 25.08 303 38 C303.12375 43.341875 303.2475 48.68375 303.375 54.1875 C302.86531532 66.72015764 302.86531532 66.72015764 299.37890625 70.76953125 C296.54341747 73.28795394 293.39863166 75.06185822 290.05419922 76.8203125 C286.36424114 78.93938517 283.23730903 81.7578598 280 84.5 C278.64725987 85.60880604 277.29180569 86.71430961 275.93359375 87.81640625 C274.94335205 88.62102295 274.94335205 88.62102295 273.93310547 89.44189453 C271.00079279 91.80537262 268.03310919 94.12247352 265.0625 96.4375 C259.8024431 100.53937923 254.63749637 104.74578038 249.5 109 C243.8085006 113.71297432 238.06675554 118.34452844 232.23828125 122.88671875 C227.77910752 126.36853934 223.38263657 129.92245524 219 133.5 C213.93458009 137.63440207 208.83933528 141.72375191 203.6875 145.75 C198.72850347 149.62693327 193.82702555 153.56423009 188.96484375 157.5625 C179.81604143 165.08404499 170.6248003 172.54601604 161.28979492 179.83544922 C156.12886254 183.87520095 151.04926163 188.01125631 145.97192383 192.15527344 C141.01278828 196.19564996 136.00068303 200.16236567 130.95947266 204.09960938 C126.34991086 207.70628182 121.81573921 211.39549829 117.3046875 215.125 C115.24398056 216.80150734 113.12522977 218.40607767 111 220 C176.34 220 241.68 220 309 220 C309 242.44 309 264.88 309 288 C207.03 288 105.06 288 0 288 C0 265.56 0 243.12 0 220 C6.93 214.555 6.93 214.555 14 209 C16.2275 207.246875 18.455 205.49375 20.75 203.6875 C26.92395077 198.83196125 33.12439129 194.01079338 39.32714844 189.19213867 C43.89551015 185.64161106 48.45416413 182.07931469 53 178.5 C59.08970936 173.70506529 65.20720917 168.94641301 71.328125 164.19140625 C75.89614024 160.64109508 80.4544354 157.0790019 85 153.5 C94.07784108 146.35403533 103.20835724 139.27575265 112.33203125 132.18847656 C119.900731 126.30842369 127.46892321 120.42820824 135 114.5 C144.07793711 107.35415578 153.20835606 100.27575356 162.33203125 93.18847656 C170.25273812 87.03495261 178.1712711 80.87881128 186.0625 74.6875 C186.65256836 74.22512939 187.24263672 73.76275879 187.85058594 73.28637695 C190.51283338 71.24423448 190.51283338 71.24423448 193 69 C129.31 68.67 65.62 68.34 0 68 C0 45.56 0 23.12 0 0 Z " fill="#703AE6" transform="translate(1450,1636)"/>
<path d="M0 0 C22.77 0 45.54 0 69 0 C71.31 2.64 73.62 5.28 76 8 C77.45390807 9.62896054 78.91157732 11.25458179 80.375 12.875 C81.51582031 14.13957031 81.51582031 14.13957031 82.6796875 15.4296875 C83.82824219 16.70199219 83.82824219 16.70199219 85 18 C86.50028679 19.66640851 88.00028872 21.33307353 89.5 23 C90.2425 23.825 90.985 24.65 91.75 25.5 C116.5 53 116.5 53 118.7421875 55.4921875 C120.26708244 57.18592894 121.79315402 58.87861169 123.3203125 60.5703125 C126.69912708 64.31564256 130.06895965 68.06518207 133.375 71.875 C136.82851561 75.84252724 140.3900394 79.7084764 143.95263672 83.57763672 C147.06585044 86.9644456 150.11244538 90.39897544 153.125 93.875 C155.54550108 96.61823456 158.0220241 99.30882906 160.5 102 C164.12090134 105.93284841 167.68958925 109.90214012 171.19140625 113.94140625 C173.4301125 116.4895665 175.71410212 118.99410593 178 121.5 C180.84524228 124.61907011 183.6719958 127.74755391 186.4375 130.9375 C189.86768576 134.88667367 193.41003518 138.73022305 196.95288086 142.57788086 C200.06599299 145.96462619 203.11252082 149.39906249 206.125 152.875 C208.54550142 155.61823494 211.02204178 158.30881243 213.5 161 C217.13918794 164.95318595 220.73086237 168.93945658 224.25 173 C227.05536808 176.20613495 229.92494346 179.35417962 232.7890625 182.5078125 C235.25351489 185.28576414 237.6226357 188.14716284 240 191 C240.495 96.455 240.495 96.455 241 0 C263.11 0 285.22 0 308 0 C308 95.04 308 190.08 308 288 C285.56 288 263.12 288 240 288 C235.23275883 282.70306537 230.48347106 277.42342993 225.8046875 272.0546875 C222.24361827 268.00030997 218.6165196 264.0048707 215 260 C210.22966063 254.71740942 205.48105593 249.42065865 200.8046875 244.0546875 C197.24361827 240.00030997 193.6165196 236.0048707 190 232 C185.22966063 226.71740942 180.48105593 221.42065865 175.8046875 216.0546875 C172.24361827 212.00030997 168.6165196 208.0048707 165 204 C160.22966063 198.71740942 155.48105593 193.42065865 150.8046875 188.0546875 C147.24361827 184.00030997 143.6165196 180.0048707 140 176 C135.22966063 170.71740942 130.48105593 165.42065865 125.8046875 160.0546875 C122.24361827 156.00030997 118.6165196 152.0048707 115 148 C110.22966063 142.71740942 105.48105593 137.42065865 100.8046875 132.0546875 C97.24361827 128.00030997 93.6165196 124.0048707 90 120 C82.8682501 112.1024246 75.81292017 104.1755042 69 96 C68.67 159.36 68.34 222.72 68 288 C45.56 288 23.12 288 0 288 C0 192.96 0 97.92 0 0 Z " fill="#703AE6" transform="translate(2121,1636)"/>
<path d="M0 0 C22.44 0 44.88 0 68 0 C68.02578125 7.05375 68.0515625 14.1075 68.078125 21.375 C68.10329883 25.85029651 68.12963595 30.32552581 68.16015625 34.80078125 C68.20846243 41.90023026 68.25251807 48.99952363 68.27099609 56.09912109 C68.28616758 61.82459837 68.32062266 67.54966783 68.36830902 73.27496338 C68.3831176 75.45652721 68.39104071 77.63814926 68.39188385 79.81976318 C68.39425675 82.8815837 68.42136364 85.94228019 68.45410156 89.00390625 C68.4490712 89.90086716 68.44404083 90.79782806 68.43885803 91.7219696 C68.53443069 97.51973307 69.55668339 102.2225204 73 107 C76.72950429 109.4863362 79.603648 109.28199095 83.91989136 109.26069641 C84.73563727 109.26452196 85.55138319 109.26834751 86.39184868 109.27228898 C89.1348325 109.28263652 91.87760768 109.27862351 94.62060547 109.2746582 C96.58335566 109.27900374 98.54610415 109.28418635 100.5088501 109.29014587 C105.84769991 109.30356495 111.18647906 109.30411126 116.52534246 109.30158257 C120.97873575 109.30051472 125.43211463 109.30539153 129.88550484 109.310188 C140.39064044 109.32129349 150.89574028 109.32171489 161.40087891 109.31567383 C172.24529143 109.30963361 183.08957422 109.32194393 193.93396461 109.3432439 C203.237644 109.36084709 212.54128206 109.36686324 221.8449775 109.36360615 C227.40464116 109.36179093 232.96421231 109.36445322 238.52386093 109.37832069 C243.75232686 109.39087336 248.98059031 109.38897919 254.20905304 109.37590981 C256.12912438 109.37353879 258.04920985 109.37629742 259.96926498 109.38453293 C262.58846033 109.39495786 265.20697093 109.38693407 267.82614136 109.3742218 C268.96851 109.38528323 268.96851 109.38528323 270.13395679 109.39656812 C274.59978943 109.35090419 277.45447078 108.76339397 281 106 C284.53335753 100.91174533 284.44174477 96.10470729 284.43237305 90.13916016 C284.4425647 89.16292694 284.45275635 88.18669373 284.46325684 87.18087769 C284.49335511 83.96688067 284.50264811 80.75318186 284.51171875 77.5390625 C284.52856775 75.30560315 284.54671828 73.07215327 284.56611633 70.8387146 C284.61359825 64.96977701 284.6434195 59.10087782 284.66955566 53.23181152 C284.70461516 46.18485276 284.76162287 39.13804145 284.81494904 32.09120178 C284.89344171 21.39415322 284.9440639 10.69729743 285 0 C307.44 0 329.88 0 353 0 C353.08021762 23.85582849 353.08021762 23.85582849 353.09765625 34.10351562 C353.10956521 41.06847215 353.12358239 48.03337558 353.15087891 54.99829102 C353.17277028 60.61986812 353.18460267 66.24138821 353.18975449 71.86300468 C353.19342121 73.99696181 353.20058047 76.13091617 353.21146011 78.26484871 C353.3428727 105.13328919 350.0675989 128.66962929 332 150 C331.48050781 150.66386719 330.96101563 151.32773438 330.42578125 152.01171875 C317.54517218 167.88636771 298.88286091 175.90904922 279 178 C267.26289532 178.6225605 255.4968107 178.37701077 243.75 178.25 C232.9425 178.1675 222.135 178.085 211 178 C211 214.3 211 250.6 211 288 C188.56 288 166.12 288 143 288 C143 251.7 143 215.4 143 178 C120.039137 178.07902552 120.039137 178.07902552 97.07836914 178.18017578 C92.61218262 178.18920898 92.61218262 178.18920898 90.51365662 178.19088745 C89.06487292 178.1939352 87.61609392 178.20092012 86.16734314 178.21115112 C78.19497505 178.26458011 70.72275031 178.1819704 63 176 C61.92234375 175.72800781 60.8446875 175.45601562 59.734375 175.17578125 C45.58791667 171.08367747 35.20544541 164.32308743 25 154 C23.90558594 152.92105469 23.90558594 152.92105469 22.7890625 151.8203125 C12.85805708 141.41827125 6.66304442 128.79791167 3 115 C2.7523439 114.20548935 2.50468781 113.4109787 2.24952698 112.59239197 C-0.8816546 101.33276958 -0.37760831 90.01086946 -0.29296875 78.41796875 C-0.28736381 76.14968651 -0.28309796 73.8814006 -0.28010559 71.6131134 C-0.26872754 65.68331632 -0.23932181 59.75374456 -0.20599365 53.82403564 C-0.16970207 46.68776861 -0.15609808 39.55142565 -0.13863373 32.41509247 C-0.10967967 21.6099056 -0.05214311 10.80521179 0 0 Z " fill="#703BE6" transform="translate(387,1636)"/>
<path d="M0 0 C107.91 0 215.82 0 327 0 C327 22.44 327 44.88 327 68 C284.1 68 241.2 68 197 68 C197 140.6 197 213.2 197 288 C174.89 288 152.78 288 130 288 C130 215.07 130 142.14 130 67 C87.1 67 44.2 67 0 67 C0 44.89 0 22.78 0 0 Z " fill="#703AE6" transform="translate(760,1636)"/>
<path d="M0 0 C22.11 0 44.22 0 67 0 C67 72.6 67 145.2 67 220 C139.93 220 212.86 220 288 220 C288 242.44 288 264.88 288 288 C192.96 288 97.92 288 0 288 C0 192.96 0 97.92 0 0 Z " fill="#703AE6" transform="translate(71,1636)"/>
<path d="M0 0 C75.9 0 151.8 0 230 0 C230 16.83 230 33.66 230 51 C221.94647852 57.90301841 213.99734737 64.67320309 205.6328125 71.15234375 C201.70879018 74.21162385 197.85345565 77.35259508 194 80.5 C189.03780838 84.54998035 184.04841381 88.55799898 179 92.5 C172.48770583 97.58597845 166.0763363 102.79096139 159.671875 108.01171875 C156.02458406 110.98416829 152.35135699 113.92299568 148.671875 116.85546875 C145.8770181 119.09870916 143.09806375 121.36064636 140.3203125 123.625 C134.023772 128.75727452 127.69257157 133.83585467 121.29003906 138.83520508 C116.13648334 142.86934091 111.06361685 146.99899698 105.99389648 151.13769531 C100.79445816 155.37451002 95.54059908 159.53730783 90.25195312 163.66210938 C87.53469728 165.72524155 87.53469728 165.72524155 85 168 C159.25 168.495 159.25 168.495 235 169 C235 185.83 235 202.66 235 220 C157.45 220 79.9 220 0 220 C0 202.84 0 185.68 0 168 C13.52327586 156.73060345 13.52327586 156.73060345 19.75 152.1875 C25.28568031 148.0945163 30.68332693 143.87341339 36 139.5 C41.87965551 134.66515382 47.88228853 130.04807158 54 125.51953125 C58.77195656 121.96852451 63.40583484 118.2775244 68 114.5 C73.90581993 109.64500175 79.93196965 105.0004039 86.07250977 100.44702148 C91.24015603 96.60302017 96.27535451 92.61636383 101.28540039 88.57006836 C105.96506449 84.80100191 110.71540652 81.13469005 115.5 77.5 C121.68445695 72.80144651 127.79192997 68.02052794 133.828125 63.1328125 C138.14972504 59.64190904 142.54644711 56.34016467 147 53 C98.49 52.67 49.98 52.34 0 52 C0 34.84 0 17.68 0 0 Z " fill="#FEFDFE" transform="translate(1187,694)"/>
<path d="M0 0 C16.83 0 33.66 0 51 0 C52.94947953 1.94947953 52.12301844 4.9211071 52.12908077 7.51613522 C52.12616811 8.46234517 52.12325544 9.40855513 52.12025452 10.38343811 C52.12111053 11.37826202 52.12196655 12.37308594 52.12284851 13.39805603 C52.12451444 16.76937607 52.11896274 20.14064733 52.11352539 23.51196289 C52.11321932 25.95508796 52.1133521 28.39821312 52.11389065 30.84133816 C52.11409422 36.74155113 52.10979406 42.64175046 52.10338932 48.54195898 C52.09620591 55.36289423 52.09539548 62.18382181 52.09460449 69.00476074 C52.08934829 87.02400957 52.07538726 105.04325501 52.0625 123.0625 C52.041875 163.301875 52.02125 203.54125 52 245 C139.45 245 226.9 245 317 245 C317 262.16 317 279.32 317 297 C212.39 297 107.78 297 0 297 C0 198.99 0 100.98 0 0 Z " fill="#FDFCFE" transform="translate(1105,694)"/>
<path d="M0 0 C6.67034084 6.10717886 10.92807484 13.70912271 11.33203125 22.84375 C10.82106961 32.04105959 7.58591657 39.77470819 1.15625 46.39453125 C-6.02356735 52.2582446 -14.04769349 54.17244387 -23.19140625 53.7578125 C-31.29468794 52.65376641 -37.89998344 48.49877661 -43.23046875 42.34375 C-48.28049979 34.09828988 -50.06569331 26.9900055 -49.23046875 17.34375 C-47.27564363 9.43508609 -43.4381631 3.1154354 -36.609375 -1.3828125 C-24.70928982 -8.19670116 -11.36894092 -8.44208573 0 0 Z " fill="#FDFCFE" transform="translate(1437.23046875,229.65625)"/>
<path d="M0 0 C5.67283716 4.18650428 8.86306521 10.2231193 11.0390625 16.8203125 C12.48619349 26.82871463 10.89046461 35.96313849 4.7890625 44.1328125 C-1.60201217 50.37863548 -8.62964032 54.09431813 -17.6484375 54.1953125 C-26.71236655 54.04361494 -33.81543397 51.68574049 -40.49609375 45.4609375 C-47.20172225 37.95063357 -48.60978503 29.54220351 -48.328125 19.83984375 C-47.81137386 11.9914568 -44.25909659 6.75607341 -38.7109375 1.3828125 C-27.23156153 -7.96306103 -12.39266618 -7.45534897 0 0 Z " fill="#FDFDFE" transform="translate(1070.9609375,453.1796875)"/>
<path d="M0 0 C6.95376563 4.8047885 12.78571569 10.68536242 15 19 C16.31688763 29.78750448 15.17920655 38.20393455 8.4609375 47.01953125 C3.22039071 52.91825098 -2.83631904 55.56478766 -10.625 56.37890625 C-20.44664976 56.6858328 -28.48642023 55.56183409 -35.875 48.75 C-42.79235694 41.18006222 -44.55404369 32.92309506 -44.34765625 22.87890625 C-43.64026259 14.98630056 -40.00072972 9.10062026 -34 4 C-33.278125 3.29875 -32.55625 2.5975 -31.8125 1.875 C-22.37742901 -4.41504732 -10.1423042 -4.86954667 0 0 Z " fill="#FDFDFE" transform="translate(1062,1405)"/>
<path d="M0 0 C6.86619061 4.2826746 11.02609447 10.11107152 13.69921875 17.68359375 C13.97994109 20.43302142 14.13181365 22.88762693 14.07421875 25.62109375 C14.06261719 26.32693604 14.05101562 27.03277832 14.0390625 27.76000977 C13.75235469 36.87457741 11.27714285 42.04348954 4.9765625 48.62890625 C-1.76743549 54.71354251 -8.42221178 56.41598374 -17.39624023 56.27587891 C-26.32555627 55.79046327 -32.83347824 52.0616003 -38.83203125 45.58203125 C-44.74030762 37.94526977 -46.00706631 30.14781357 -45.30078125 20.68359375 C-43.62377671 12.32498056 -39.8144942 6.19447774 -32.80078125 1.37109375 C-22.49457536 -5.25173222 -11.04046055 -5.20331452 0 0 Z " fill="#FDFDFE" transform="translate(1428.30078125,1229.31640625)"/>
</svg>
